<svg width="20" height="22" viewBox="0 0 20 22" fill="none" xmlns="http://www.w3.org/2000/svg">
<path d="M18.6627 7.56809L11.762 0.803927C11.1628 0.201044 10.3008 -0.0940025 9.46332 0.0265739L3.20006 0.887052C2.70267 0.955561 2.35441 1.41594 2.42261 1.91561C2.49081 2.41527 2.94819 2.76421 3.44739 2.69661L9.71156 1.83613C9.98981 1.79777 10.2771 1.89368 10.4854 2.10286L17.387 8.86702C18.3372 9.82159 18.4299 11.3151 17.6807 12.3811C17.4679 11.9545 17.2051 11.548 16.8523 11.1936L10.0553 4.42305C9.45696 3.82199 8.60313 3.53243 7.75657 3.64569L1.49239 4.50617C1.07957 4.56281 0.75768 4.89439 0.712215 5.31093L0.0166 11.6284C-0.0743301 12.4606 0.21119 13.2763 0.802236 13.8691L7.54561 20.5858C8.40399 21.449 9.54516 21.9231 10.7591 21.9231H10.7745C11.9948 21.9194 13.1387 21.4371 13.9962 20.5648L16.8759 17.6344C17.7189 16.7767 18.1426 15.6622 18.1699 14.5396L18.6945 14.0134C20.4449 12.2322 20.4349 9.34385 18.6654 7.56717L18.6627 7.56809ZM4.54492 9.13558C4.04298 9.13558 3.63562 8.72635 3.63562 8.22212C3.64107 7.02732 5.44876 7.02823 5.45422 8.22212C5.45422 8.72635 5.04685 9.13558 4.54492 9.13558Z" fill="#FF914D"/>
</svg>
