<svg width="31" height="31" viewBox="0 0 31 31" fill="none" xmlns="http://www.w3.org/2000/svg">
<path fill-rule="evenodd" clip-rule="evenodd" d="M14.3117 30.9897C14.0017 30.9759 13.6951 30.9483 13.392 30.907C13.082 30.8588 12.7789 30.8002 12.4827 30.7313C12.1796 30.6624 11.8799 30.5798 11.5837 30.4833C11.2806 30.3869 10.9843 30.2801 10.695 30.163C10.4057 30.039 10.1163 29.9081 9.827 29.7703C9.54456 29.6257 9.26556 29.4707 8.99 29.3053C8.70756 29.14 8.432 28.9678 8.16333 28.7887C7.89467 28.6027 7.62944 28.4063 7.36767 28.1997C7.10589 27.9999 6.851 27.7898 6.603 27.5693C6.34811 27.3489 6.10011 27.1216 5.859 26.8873C5.61789 26.6531 5.38367 26.4086 5.15633 26.1537C4.92211 25.9057 4.69822 25.6508 4.48467 25.389C4.26422 25.1203 4.05067 24.8482 3.844 24.5727C3.63733 24.2971 3.43756 24.0181 3.24467 23.7357C3.05867 23.4463 2.87611 23.157 2.697 22.8677C2.51789 22.5714 2.34911 22.2718 2.19067 21.9687C2.02533 21.6656 1.87033 21.359 1.72567 21.049C1.581 20.7459 1.44322 20.4359 1.31233 20.119C1.18144 19.809 1.06089 19.4956 0.950667 19.1787C0.840444 18.8618 0.737111 18.5449 0.640667 18.228C0.551111 17.9111 0.468444 17.5908 0.392667 17.267C0.323778 16.9501 0.261778 16.6332 0.206667 16.3163C0.151556 15.9994 0.106778 15.6826 0.0723333 15.3657C0.0378889 15.0488 0.0172222 14.7319 0.0103333 14.415C-0.00344444 14.105 -0.00344444 13.795 0.0103333 13.485C0.0172222 13.1819 0.0378889 12.8788 0.0723333 12.5757C0.106778 12.2726 0.151556 11.9729 0.206667 11.6767C0.261778 11.3804 0.323778 11.0877 0.392667 10.7983C0.468444 10.509 0.551111 10.2231 0.640667 9.94067C0.737111 9.65822 0.840444 9.38267 0.950667 9.114C1.06089 8.83844 1.18144 8.56633 1.31233 8.29767C1.44322 8.03589 1.581 7.77756 1.72567 7.52267C1.87033 7.26778 2.02533 7.01633 2.19067 6.76833C2.34911 6.52033 2.51789 6.27922 2.697 6.045C2.87611 5.80389 3.05867 5.57311 3.24467 5.35267C3.43756 5.12533 3.63733 4.90489 3.844 4.69133C4.05067 4.47778 4.26422 4.27111 4.48467 4.07133C4.69822 3.86467 4.92211 3.66833 5.15633 3.48233C5.38367 3.29633 5.61789 3.11378 5.859 2.93467C6.10011 2.76244 6.34811 2.59367 6.603 2.42833C6.851 2.26989 7.10589 2.11489 7.36767 1.96333C7.62944 1.81867 7.89467 1.68089 8.16333 1.55C8.432 1.41911 8.70756 1.29511 8.99 1.178C9.26556 1.06089 9.54456 0.950667 9.827 0.847333C10.1163 0.750889 10.4057 0.661333 10.695 0.578667C10.9843 0.496 11.2806 0.420222 11.5837 0.351333C11.8799 0.282444 12.1796 0.227333 12.4827 0.186C12.7789 0.137778 13.082 0.0964444 13.392 0.062C13.6951 0.0344444 14.0017 0.0172222 14.3117 0.0103333C14.6217 -0.00344444 14.9317 -0.00344444 15.2417 0.0103333C15.5517 0.0172222 15.8617 0.0344444 16.1717 0.062C16.4886 0.0964444 16.802 0.137778 17.112 0.186C17.422 0.227333 17.7354 0.282444 18.0523 0.351333C18.3623 0.420222 18.6723 0.496 18.9823 0.578667C19.2854 0.661333 19.592 0.750889 19.902 0.847333C20.2051 0.950667 20.5082 1.06089 20.8113 1.178C21.1076 1.29511 21.4038 1.41911 21.7 1.55C21.9962 1.68089 22.2856 1.81867 22.568 1.96333C22.8573 2.11489 23.1432 2.26989 23.4257 2.42833C23.7012 2.59367 23.9733 2.76244 24.242 2.93467C24.5107 3.11378 24.7759 3.29633 25.0377 3.48233C25.2926 3.66833 25.544 3.86467 25.792 4.07133C26.04 4.27111 26.2811 4.47778 26.5153 4.69133C26.7496 4.90489 26.9769 5.12533 27.1973 5.35267C27.4178 5.57311 27.6313 5.80389 27.838 6.045C28.0378 6.27922 28.2341 6.52033 28.427 6.76833C28.613 7.01633 28.7921 7.26778 28.9643 7.52267C29.1297 7.77756 29.2881 8.03589 29.4397 8.29767C29.5912 8.56633 29.7359 8.83844 29.8737 9.114C30.0046 9.38267 30.1251 9.65822 30.2353 9.94067C30.3456 10.2231 30.442 10.509 30.5247 10.7983C30.6142 11.0877 30.69 11.3804 30.752 11.6767C30.8209 11.9729 30.8726 12.2726 30.907 12.5757C30.9483 12.8788 30.9759 13.1819 30.9897 13.485C31.0034 13.795 31.0034 14.105 30.9897 14.415C30.9759 14.7319 30.9483 15.0488 30.907 15.3657C30.8726 15.6826 30.8209 15.9994 30.752 16.3163C30.69 16.6332 30.6142 16.9501 30.5247 17.267C30.442 17.5908 30.3456 17.9111 30.2353 18.228C30.1251 18.5449 30.0046 18.8618 29.8737 19.1787C29.7359 19.4956 29.5912 19.809 29.4397 20.119C29.2881 20.4359 29.1297 20.7459 28.9643 21.049C28.7921 21.359 28.613 21.6656 28.427 21.9687C28.2341 22.2718 28.0378 22.5714 27.838 22.8677C27.6313 23.157 27.4178 23.4463 27.1973 23.7357C26.9769 24.0181 26.7496 24.2971 26.5153 24.5727C26.2811 24.8482 26.04 25.1203 25.792 25.389C25.544 25.6508 25.2926 25.9057 25.0377 26.1537C24.7759 26.4086 24.5107 26.6531 24.242 26.8873C23.9733 27.1216 23.7012 27.3489 23.4257 27.5693C23.1432 27.7898 22.8573 27.9999 22.568 28.1997C22.2856 28.4063 21.9962 28.6027 21.7 28.7887C21.4038 28.9678 21.1076 29.14 20.8113 29.3053C20.5082 29.4707 20.2051 29.6257 19.902 29.7703C19.592 29.9081 19.2854 30.039 18.9823 30.163C18.6723 30.2801 18.3623 30.3869 18.0523 30.4833C17.7354 30.5798 17.422 30.6624 17.112 30.7313C16.802 30.8002 16.4886 30.8588 16.1717 30.907C15.8617 30.9483 15.5517 30.9759 15.2417 30.9897C14.9317 31.0034 14.6217 31.0034 14.3117 30.9897Z" fill="white"/>
</svg>
