<svg width="57" height="49" viewBox="0 0 57 49" fill="none" xmlns="http://www.w3.org/2000/svg">
<path d="M56.0625 19.5781C56.0625 20.941 55.6584 22.2732 54.9012 23.4064C54.1441 24.5395 53.0679 25.4227 51.8088 25.9442C50.5497 26.4658 49.1642 26.6022 47.8276 26.3364C46.4909 26.0705 45.2631 25.4142 44.2995 24.4505C43.3358 23.4869 42.6795 22.2591 42.4137 20.9224C42.1478 19.5858 42.2842 18.2003 42.8058 16.9412C43.3273 15.6821 44.2105 14.6059 45.3437 13.8488C46.4768 13.0916 47.809 12.6875 49.1719 12.6875C50.9994 12.6875 52.752 13.4135 54.0443 14.7057C55.3365 15.998 56.0625 17.7506 56.0625 19.5781ZM14.7188 19.5781C14.7188 18.2153 14.3146 16.8831 13.5575 15.7499C12.8003 14.6167 11.7242 13.7336 10.4651 13.212C9.20596 12.6905 7.82048 12.554 6.48383 12.8199C5.14718 13.0858 3.91939 13.742 2.95572 14.7057C1.99205 15.6694 1.33578 16.8972 1.0699 18.2338C0.804028 19.5705 0.940486 20.956 1.46202 22.2151C1.98356 23.4742 2.86674 24.5503 3.9999 25.3075C5.13306 26.0646 6.46529 26.4688 7.82813 26.4688C9.65564 26.4688 11.4083 25.7428 12.7005 24.4505C13.9928 23.1583 14.7188 21.4056 14.7188 19.5781ZM19.6406 14.6563C21.0035 14.6563 22.3357 14.2521 23.4689 13.495C24.602 12.7378 25.4852 11.6617 26.0067 10.4026C26.5283 9.14346 26.6647 7.75798 26.3989 6.42133C26.133 5.08468 25.4767 3.85689 24.513 2.89322C23.5494 1.92955 22.3216 1.27328 20.9849 1.0074C19.6483 0.741526 18.2628 0.877984 17.0037 1.39952C15.7446 1.92105 14.6684 2.80424 13.9113 3.9374C13.1541 5.07056 12.75 6.40279 12.75 7.76563C12.75 9.59313 13.476 11.3458 14.7682 12.638C16.0605 13.9303 17.8131 14.6563 19.6406 14.6563ZM37.3594 14.6563C38.7222 14.6563 40.0544 14.2521 41.1876 13.495C42.3208 12.7378 43.2039 11.6617 43.7255 10.4026C44.247 9.14346 44.3835 7.75798 44.1176 6.42133C43.8517 5.08468 43.1955 3.85689 42.2318 2.89322C41.2681 1.92955 40.0403 1.27328 38.7037 1.0074C37.367 0.741526 35.9815 0.877984 34.7225 1.39952C33.4634 1.92105 32.3872 2.80424 31.63 3.9374C30.8729 5.07056 30.4688 6.40279 30.4688 7.76563C30.4688 9.59313 31.1947 11.3458 32.487 12.638C33.7792 13.9303 35.5319 14.6563 37.3594 14.6563ZM43.0491 29.6335C42.049 29.0818 41.1676 28.3384 40.4553 27.4457C39.7429 26.553 39.2135 25.5286 38.8975 24.4311C38.2429 22.1799 36.8753 20.2021 35.0004 18.7947C33.1255 17.3873 30.8444 16.6264 28.5 16.6264C26.1556 16.6264 23.8745 17.3873 21.9996 18.7947C20.1247 20.2021 18.7571 22.1799 18.1025 24.4311C17.4702 26.6395 15.9878 28.5068 13.9805 29.6237C12.0548 30.6656 10.5315 32.3198 9.6515 34.3247C8.77147 36.3295 8.58494 38.5705 9.12141 40.6932C9.65788 42.8159 10.8867 44.6992 12.6136 46.0452C14.3405 47.3912 16.4668 48.123 18.6563 48.125C19.9683 48.1288 21.2676 47.8668 22.4756 47.3547C26.3272 45.7663 30.6507 45.7663 34.5022 47.3547C36.8351 48.3693 39.4701 48.4414 41.855 47.5558C44.2398 46.6702 46.1892 44.8958 47.2944 42.6045C48.3996 40.3132 48.5749 37.683 47.7835 35.2653C46.992 32.8476 45.2953 30.8302 43.0491 29.636V29.6335Z" fill="#FFBBC1"/>
</svg>
