<svg width="56" height="59" viewBox="0 0 56 59" fill="none" xmlns="http://www.w3.org/2000/svg">
<path d="M40.2921 47.0061C39.8377 47.3452 39.8651 47.6179 40.3714 47.8169C43.8208 49.2026 47.1482 50.3082 50.3506 51.1374C51.4912 51.4285 52.5191 51.3843 53.6506 51.2185C55.6879 50.9236 56.0203 55.3534 55.8983 56.9049C55.8831 57.1039 55.8099 57.2698 55.6818 57.3988C55.087 57.9737 54.352 58.2095 53.4798 58.1027C49.6888 57.653 45.6721 57.4061 41.4297 57.3582C40.6398 57.3545 39.8011 57.2845 39.0721 56.8828C34.6956 54.4837 30.3342 54.8669 25.61 55.007C23.0237 55.0807 20.2818 54.1446 17.3845 52.1914C14.972 50.5662 12.77 48.027 10.7815 44.5775C10.7205 44.4706 10.6381 44.4301 10.5344 44.4522C10.4277 44.4706 10.3606 44.5443 10.3301 44.6696C9.92751 46.4644 9.69267 48.2002 9.62862 49.877C9.62557 50.006 9.64387 50.1313 9.68657 50.2492C9.72927 50.3672 9.79331 50.4703 9.87566 50.5514C9.958 50.6362 10.0495 50.6952 10.1532 50.7283C10.2569 50.7578 10.3636 50.7615 10.4673 50.7357C11.2268 50.5441 11.7513 50.8647 12.0441 51.6976C12.7486 53.7134 14.3437 57.1555 10.9523 57.4061C9.67742 57.4983 8.42392 57.5462 7.19177 57.5462C6.41405 57.5499 5.79187 57.0708 5.32829 56.1089C1.05846 47.2531 -0.37193 37.568 1.03711 27.0538C1.86058 20.8846 4.05954 14.8922 7.42356 10.2119C13.1817 2.20734 21.6055 -0.667212 30.4227 0.390475C36.4126 1.10911 43.9001 5.70103 45.9801 13.138C46.2393 14.0778 46.0015 14.7632 45.2634 15.1981C45.1627 15.2571 45.059 15.3013 44.9432 15.3234C44.2051 15.4745 43.6744 15.1391 43.3542 14.3173C42.1464 11.2253 40.6703 8.90726 38.9227 7.36679C35.7356 4.56595 32.3533 2.95178 28.7758 2.51691C24.1643 1.95674 18.7264 3.30925 14.5847 6.13958C9.97326 9.29422 6.66719 13.9304 4.66952 20.0554C1.52814 29.6925 1.56474 39.5434 4.78236 49.608C5.40149 51.5428 6.13956 53.3007 6.99962 54.8817C7.14602 55.1544 7.35646 55.2871 7.62485 55.2834L10.4063 55.2502C11.0468 55.2428 11.2207 54.8927 10.934 54.1962L10.7723 53.8166C10.5558 53.297 10.2081 53.0022 9.72927 52.9358C8.35072 52.7368 7.6828 51.6976 7.7194 49.8144C7.75599 47.9017 8.20738 42.5137 9.59812 41.1833C9.72012 41.0654 9.85431 40.9843 10.0038 40.9364C10.1562 40.8885 10.3057 40.8811 10.4612 40.9069C10.6137 40.9364 10.7571 41.0028 10.8882 41.1023C11.0194 41.2018 11.1292 41.3307 11.2146 41.4855C15.2495 48.6093 19.9403 53.2712 27.5162 52.6631C30.8466 52.3941 34.9274 52.3425 37.9803 53.8903C39.2521 54.5316 40.4476 55.206 41.878 55.1912C45.8063 55.1544 49.6796 55.3681 53.4889 55.8362C53.8213 55.8767 53.9647 55.6961 53.9189 55.2944L53.7756 54.1741C53.7177 53.6913 53.4859 53.4739 53.0863 53.5329C51.8145 53.7134 50.5336 53.5992 49.2465 53.1864C46.831 52.4199 37.0897 50.2013 36.3394 47.0577C36.2998 46.8956 36.2906 46.7297 36.315 46.5639C36.3364 46.3981 36.3882 46.247 36.4675 46.1069C36.5499 45.9706 36.6505 45.86 36.7695 45.7752C36.8915 45.6942 37.0226 45.6463 37.1629 45.6352C39.4778 45.4473 40.8899 44.0616 41.3961 41.4671C41.4175 41.3602 41.4175 41.257 41.3992 41.1502C41.3778 41.047 41.3382 40.9512 41.2803 40.8701C41.2223 40.789 41.1522 40.7263 41.0698 40.6821C40.9875 40.6416 40.9021 40.6232 40.8136 40.6305C40.1548 40.6895 39.5693 40.5458 39.0538 40.203C38.9013 40.1035 38.8098 39.9487 38.7763 39.7424C38.3371 36.9968 36.9403 35.5116 34.5888 35.2905C34.3509 35.2684 34.1496 35.1541 33.988 34.9441C33.8263 34.7303 33.7471 34.4834 33.744 34.196L33.7349 31.8116C33.7349 31.7415 33.7196 31.6789 33.6922 31.6199C33.6617 31.5609 33.622 31.513 33.5732 31.4762C33.5244 31.443 33.4695 31.4246 33.4116 31.4246C33.3536 31.4246 33.3018 31.443 33.2499 31.4762C31.667 32.5707 30.1329 33.5252 28.6507 34.336C23.0786 37.3801 16.744 36.4366 12.8401 30.4038C10.6869 27.0759 9.84211 22.613 10.751 18.4043C10.8059 18.139 10.9309 17.9326 11.12 17.7815C11.3091 17.6304 11.5134 17.5751 11.7391 17.6157C14.9995 18.2164 17.2991 17.2398 19.3028 14.0778C20.108 12.8174 20.9986 11.7671 21.9776 10.9342C27.504 6.22066 33.0242 6.34965 38.5354 11.3211C41.4754 13.9709 42.3935 18.338 39.6791 21.8612C38.3676 23.5675 37.1721 24.4814 36.315 26.7184C36.2388 26.9138 36.1199 27.0538 35.9552 27.1386C35.7935 27.2233 35.6258 27.2307 35.458 27.1607C32.9175 26.0882 29.2759 23.1658 28.791 19.7126C28.3396 16.5285 29.3034 13.9783 31.6853 12.0582C32.1184 11.7118 32.5302 11.7413 32.9266 12.1577C33.0029 12.2314 33.0608 12.3236 33.1005 12.4341C33.2835 12.9132 33.2164 13.3296 32.8992 13.6908C32.3106 14.3726 31.6365 14.9143 31.2096 15.7951C29.3827 19.5431 32.094 22.8009 34.7962 24.2493C34.8877 24.3009 34.9823 24.3082 35.0798 24.2787C35.1805 24.2456 35.2567 24.1792 35.3177 24.0797C35.9521 23.0147 36.7237 22.0233 37.6326 21.1057C40.1975 18.526 39.7645 15.2718 37.2788 13.0422C34.5797 10.6246 31.9171 9.55588 29.2973 9.84333C25.8113 10.2229 22.6363 12.5705 20.4709 16.0384C19.4736 17.6304 18.0493 18.7692 16.4847 19.4399C15.6094 19.8158 15.8504 20.9509 15.521 21.7985C15.0147 23.1105 14.2248 23.9397 13.1482 24.2898C12.6541 24.4483 12.5047 24.8131 12.6968 25.388C14.5328 30.7281 17.7169 33.5215 22.249 33.7611C26.2931 33.9859 29.9347 30.7133 33.4909 29.0218C34.052 28.7601 35.2689 28.4763 35.7874 28.9849C36.1839 29.3756 36.2541 29.8989 36.004 30.5549C35.7447 31.233 35.5861 31.9332 35.5282 32.6481C35.5129 32.8619 35.5892 33.0019 35.7539 33.0756C37.8064 33.9564 39.4442 34.9072 40.1396 37.5385C40.3287 38.2424 40.713 38.4746 41.2924 38.2314C42.3447 37.7928 42.9455 38.2314 43.101 39.5507C43.4792 42.838 42.5429 45.3219 40.2921 47.0061ZM12.1295 21.4742C12.0929 21.7432 12.1722 21.9496 12.3674 22.086C12.5596 22.2223 12.7456 22.2076 12.9225 22.0381L13.5447 21.4484C13.5996 21.3931 13.6453 21.3305 13.6758 21.2531L13.8557 20.844C13.8954 20.7482 13.9137 20.6487 13.9106 20.5418C13.9045 20.435 13.8801 20.3391 13.8314 20.247C13.7856 20.1586 13.7216 20.0885 13.6423 20.0406C13.566 19.9927 13.4806 19.9706 13.3952 19.9743L12.7212 20.0075C12.6022 20.0148 12.5016 20.0664 12.4132 20.1622C12.3247 20.2544 12.2729 20.3723 12.2546 20.516L12.1295 21.4742Z" fill="black"/>
</svg>
